# xmcd CD database file
#
# Track frame offsets:
#	150
#	21275
#	35042
#	51843
#	71945
#	86522
#	96284
#	107024
#	117757
#	129506
#	147048
#	157472
#	162665
#	173737
#	198146
#	217640
#	233715
#
# Disc length: 3307 seconds
#
# Revision: 0
# Processed by: cddbd v1.5.2PL0 Copyright (c) Steve Scherf et al.
# Submitted via: CDex 1.51
#
DISCID=ee0ce911
DTITLE=Clube do SambaRock - Swing Rock Samba - International
DYEAR=2006
DGENRE=Rhythmic Soul
TTITLE0=I'm a wonderful thing baby
TTITLE1=I got a girl
TTITLE2=The Mack is back
TTITLE3=Love somebody - yes I do
TTITLE4=Koko boogie
TTITLE5=Mambo number 8
TTITLE6=Crazy little thing called love
TTITLE7=Love me do
TTITLE8=Jail house Rock
TTITLE9=Mambo number 5
TTITLE10=Can't by my love
TTITLE11=Kc track loop
TTITLE12=Same beat
TTITLE13=Let's get it on
TTITLE14=No woman no cry
TTITLE15=Killing me softly
TTITLE16=Coco
EXTD=YEAR: 2006
EXTT0=
EXTT1=
EXTT2=
EXTT3=
EXTT4=
EXTT5=
EXTT6=
EXTT7=
EXTT8=
EXTT9=
EXTT10=
EXTT11=
EXTT12=
EXTT13=
EXTT14=
EXTT15=
EXTT16=
PLAYORDER=
